<svg xmlns="http://www.w3.org/2000/svg" xmlns:xlink="http://www.w3.org/1999/xlink" width="362.729" height="495.874" viewBox="0 0 362.729 495.874">
  <defs>
    <linearGradient id="linear-gradient" x1="0.5" x2="0.5" y2="1" gradientUnits="objectBoundingBox">
      <stop offset="0" stop-color="#779dfe"/>
      <stop offset="1" stop-color="#4afde9"/>
    </linearGradient>
  </defs>
  <g id="design" transform="translate(-869 -6523)">
    <text id="Design-2" data-name="Design" transform="translate(1050.5 6586)" fill="#3a3a3a" stroke="#707070" stroke-width="1" font-size="69" font-family="Arial-BoldItalicMT, Arial" font-weight="700" font-style="italic"><tspan x="-115.022" y="0">Design</tspan></text>
    <path id="design-shape" d="M0-47.56s182.02-106.775,177.849-109.4,184.88,109.4,184.88,109.4V136.472s-191.5,90.806-191.332,91.389S0,136.472,0,136.472Z" transform="translate(869 6791.01)" fill="url(#linear-gradient)"/>
    <g id="Design-laptop" transform="translate(921 6740)">
      <g id="Rectangle_22" data-name="Rectangle 22" transform="translate(18.524)">
        <path id="Rectangle_22-2" data-name="Rectangle 22" d="M19.8,0H202.489a19.8,19.8,0,0,1,19.8,19.8V162.184a0,0,0,0,1,0,0H0a0,0,0,0,1,0,0V19.8A19.8,19.8,0,0,1,19.8,0Z" fill="#515d6b"/>
        <path id="Rectangle_22-3" data-name="Rectangle 22" d="M19.8,0H202.489a19.8,19.8,0,0,1,19.8,19.8V162.184a0,0,0,0,1,0,0H0a0,0,0,0,1,0,0V19.8A19.8,19.8,0,0,1,19.8,0Z" fill="rgba(216,216,216,0.02)"/>
      </g>
      <g id="Rectangle_22-4" data-name="Rectangle 22" transform="translate(25.91 8.077)">
        <path id="Rectangle_22-5" data-name="Rectangle 22" d="M11.88,0H195.638a11.88,11.88,0,0,1,11.88,11.88V143.295a0,0,0,0,1,0,0H0a0,0,0,0,1,0,0V11.88A11.88,11.88,0,0,1,11.88,0Z" fill="#292f36"/>
        <path id="Rectangle_22-6" data-name="Rectangle 22" d="M11.88,0H195.638a11.88,11.88,0,0,1,11.88,11.88V143.295a0,0,0,0,1,0,0H0a0,0,0,0,1,0,0V11.88A11.88,11.88,0,0,1,11.88,0Z" fill="rgba(216,216,216,0.02)"/>
      </g>
      <g id="Rectangle_22-7" data-name="Rectangle 22" transform="translate(27.819 10.816)">
        <path id="Rectangle_22-8" data-name="Rectangle 22" d="M7.92,0H195.9a7.92,7.92,0,0,1,7.92,7.92V137.889a0,0,0,0,1,0,0H0a0,0,0,0,1,0,0V7.92A7.92,7.92,0,0,1,7.92,0Z" fill="#588cbe"/>
        <path id="Rectangle_22-9" data-name="Rectangle 22" d="M7.92,0H195.9a7.92,7.92,0,0,1,7.92,7.92V137.889a0,0,0,0,1,0,0H0a0,0,0,0,1,0,0V7.92A7.92,7.92,0,0,1,7.92,0Z" fill="rgba(216,216,216,0.02)"/>
      </g>
      <ellipse id="Oval_6" data-name="Oval 6" cx="1.852" cy="1.848" rx="1.852" ry="1.848" transform="translate(128.434 2.003)" fill="#588cbe"/>
      <g id="Rectangle_23" data-name="Rectangle 23" transform="translate(0 158.129)">
        <rect id="Rectangle_23-2" data-name="Rectangle 23" width="259.338" height="13.515" fill="#6b7a8c"/>
        <rect id="Rectangle_23-3" data-name="Rectangle 23" width="259.338" height="13.515" fill="rgba(216,216,216,0.02)"/>
      </g>
      <rect id="Rectangle_24" data-name="Rectangle 24" width="37.048" height="5.406" transform="translate(111.145 158.129)" fill="#5d6b7a"/>
      <rect id="Rectangle_24-2" data-name="Rectangle 24" width="259.338" height="5.406" transform="translate(0 166.238)" fill="rgba(0,0,0,0.1)"/>
      <g id="paint" transform="translate(59.654 15.934)">
        <path id="Path_178" data-name="Path 178" d="M42.6,114.51a46.35,46.35,0,0,0,23.82-3.13A50.7,50.7,0,0,0,74.79,107l.7,6.9a55.438,55.438,0,0,1-6.71,3.27,52.53,52.53,0,0,1-27,3.52,45.4,45.4,0,0,1-26-13.18A55,55,0,0,1,1.16,80.22a52.92,52.92,0,0,1,5.71-37A54.1,54.1,0,0,1,35.69,18.76,26.41,26.41,0,0,1,48.12,17a13.43,13.43,0,0,1,9.34,5.38,3.42,3.42,0,0,1,.33.59c2.91,6.65-.63,10.82-4,14.8-2,2.3-3.81,4.5-2.71,6.6.46.9,1.61,1.58,3.26,2a19.72,19.72,0,0,0,7.93.11c2.58-.41,5.25-1,7.79-1.51,1.54-.33,3-.65,4.5-.93l-2,6.81-1.22.26c-2.52.53-5.17,1.09-8.11,1.56a26.22,26.22,0,0,1-10.48-.23c-3.38-.88-5.92-2.65-7.24-5.18-3.05-5.85.14-9.61,3.47-13.55,2.07-2.44,4.24-5,3.19-7.92a7.4,7.4,0,0,0-4.92-2.59,20.41,20.41,0,0,0-9.46,1.4A47.9,47.9,0,0,0,12.34,46.24a46.78,46.78,0,0,0-5,32.68,48.77,48.77,0,0,0,12.9,24.2A39.12,39.12,0,0,0,42.6,114.51Z" fill="#fff"/>
        <path id="Path_179" data-name="Path 179" d="M22.1,55.71a9,9,0,1,0,.144-6.937A9,9,0,0,0,22.1,55.71Z" fill="#ffc363" fill-rule="evenodd"/>
        <path id="Path_180" data-name="Path 180" d="M16.76,82.51a7.043,7.043,0,1,1,.02,0Z" fill="#5afb2c" fill-rule="evenodd"/>
        <path id="Path_181" data-name="Path 181" d="M62.07,81.66a10.4,10.4,0,0,0,10.8,6.6L70.76,67.57a10.17,10.17,0,0,0-2.72.65,10.39,10.39,0,0,0-6,13.44Z" fill="#fb1d4e" fill-rule="evenodd"/>
        <path id="Path_182" data-name="Path 182" d="M89.52,0c-.77,12.18-16.75,19.69-11.11,32.37a14.14,14.14,0,0,0,8.46,7.57,9.07,9.07,0,0,0,6.58-.42c8.3-3.76,9.29-13.94,6.84-21.77C98,10.54,93.08,4.17,89.52,0Zm10.66,62.89a46.07,46.07,0,0,1-19.92.19L85.66,116a13.45,13.45,0,0,0,.56,3.36,5.19,5.19,0,0,0,8.54,2,6.07,6.07,0,0,0,1.43-3.88l4-54.6Zm-5.4-17.83c-2.51,1-7,1.59-10.21,0L80.36,59.58c7,1.56,13.82,1.85,20.38,0-3.26-6.33-3.52-7-6-14.47Z" fill="#fff" fill-rule="evenodd"/>
        <path id="Path_183" data-name="Path 183" d="M40.75,101.59a7.044,7.044,0,1,1,.03,0Z" fill="#8adcff" fill-rule="evenodd"/>
      </g>
    </g>
  </g>
</svg>
