<svg xmlns="http://www.w3.org/2000/svg" xmlns:xlink="http://www.w3.org/1999/xlink" width="142" height="362.351" viewBox="0 0 142 362.351">
  <defs>
    <linearGradient id="linear-gradient" x1="0.132" y1="0.119" x2="0.874" y2="0.882" gradientUnits="objectBoundingBox">
      <stop offset="0" stop-color="#e6e6e6"/>
      <stop offset="1" stop-color="#ccc"/>
    </linearGradient>
  </defs>
  <g id="idea" transform="translate(-182 -6523)">
    <!-- <text id="Idea-2" data-name="Idea" transform="translate(253 6586)" fill="#3a3a3a" stroke="#707070" stroke-width="1" font-size="69" font-family="Arial-BoldItalicMT, Arial" font-weight="700" font-style="italic"><tspan x="-69.034" y="0">Idea</tspan></text> -->
    <g id="Group_45" data-name="Group 45" transform="translate(205.763 6721.396)">
      <g id="Oval_43" data-name="Oval 43" transform="translate(31.046 147.323)">
        <ellipse id="Oval_43-2" data-name="Oval 43" cx="16.333" cy="8.316" rx="16.333" ry="8.316" fill="#636363"/>
        <ellipse id="Oval_43-3" data-name="Oval 43" cx="16.333" cy="8.316" rx="16.333" ry="8.316" fill="rgba(216,216,216,0.02)"/>
      </g>
      <g id="Combined_Shape" data-name="Combined Shape" transform="translate(-6.264 -1.873)">
        <path id="Combined_Shape-2" data-name="Combined Shape" d="M24.967,132.564c-.593-16.783-9.631-36.219-15.229-46.741A54.911,54.911,0,0,1,0,54.479C0,24.391,23.954,0,53.5,0S107,24.391,107,54.479A54.89,54.89,0,0,1,96.35,87.107c-5.693,10.528-13.976,28.646-14.314,45.458Z" fill="#ffdd30"/>
        <path id="Combined_Shape-3" data-name="Combined Shape" d="M24.967,132.564c-.593-16.783-9.631-36.219-15.229-46.741A54.911,54.911,0,0,1,0,54.479C0,24.391,23.954,0,53.5,0S107,24.391,107,54.479A54.89,54.89,0,0,1,96.35,87.107c-5.693,10.528-13.976,28.646-14.314,45.458Z" fill="rgba(216,216,216,0.02)"/>
      </g>
      <g id="Rectangle_129" data-name="Rectangle 129" transform="translate(42.535 78.513)">
        <path id="Rectangle_129-2" data-name="Rectangle 129" d="M4.9,0h0A4.9,4.9,0,0,1,9.8,4.9V36.589a0,0,0,0,1,0,0H0a0,0,0,0,1,0,0V4.9A4.9,4.9,0,0,1,4.9,0Z" fill="#ffb830"/>
        <path id="Rectangle_129-3" data-name="Rectangle 129" d="M4.9,0h0A4.9,4.9,0,0,1,9.8,4.9V36.589a0,0,0,0,1,0,0H0a0,0,0,0,1,0,0V4.9A4.9,4.9,0,0,1,4.9,0Z" fill="rgba(216,216,216,0.02)"/>
      </g>
      <path id="Combined_Shape-4" data-name="Combined Shape" d="M1.537,6.653C1.128,4.436.606,2.209,0,0H57c-.572,2.2-1.059,4.422-1.432,6.653Z" transform="translate(20.377 110.63)" fill="rgba(0,0,0,0.1)"/>
      <g id="Rectangle_128" data-name="Rectangle 128" transform="translate(17.837 117.386)">
        <path id="Rectangle_128-2" data-name="Rectangle 128" d="M3.311,0H55.489A3.311,3.311,0,0,1,58.8,3.311V29.983a9.933,9.933,0,0,1-9.933,9.933H9.933A9.933,9.933,0,0,1,0,29.983V3.311A3.311,3.311,0,0,1,3.311,0Z" fill="url(#linear-gradient)"/>
        <path id="Rectangle_128-3" data-name="Rectangle 128" d="M3.311,0H55.489A3.311,3.311,0,0,1,58.8,3.311V29.983a9.933,9.933,0,0,1-9.933,9.933H9.933A9.933,9.933,0,0,1,0,29.983V3.311A3.311,3.311,0,0,1,3.311,0Z" fill="rgba(216,216,216,0.02)"/>
      </g>
      <g id="Rectangle_130" data-name="Rectangle 130" transform="translate(22.809 122.73)">
        <rect id="Rectangle_130-2" data-name="Rectangle 130" width="49" height="6.653" rx="3.311" fill="#bfbfbf"/>
        <rect id="Rectangle_130-3" data-name="Rectangle 130" width="49" height="6.653" rx="3.311" fill="rgba(216,216,216,0.02)"/>
      </g>
      <g id="Rectangle_130_Copy" data-name="Rectangle 130 Copy" transform="translate(22.809 134.018)">
        <rect id="Rectangle_130_Copy-2" data-name="Rectangle 130 Copy" width="49" height="6.653" rx="3.311" fill="#bfbfbf"/>
        <rect id="Rectangle_130_Copy-3" data-name="Rectangle 130 Copy" width="49" height="6.653" rx="3.311" fill="rgba(216,216,216,0.02)"/>
      </g>
      <g id="Rectangle_130_Copy_2" data-name="Rectangle 130 Copy 2" transform="translate(22.809 143.997)">
        <rect id="Rectangle_130_Copy_2-2" data-name="Rectangle 130 Copy 2" width="49" height="6.653" rx="3.311" fill="#bfbfbf"/>
        <rect id="Rectangle_130_Copy_2-3" data-name="Rectangle 130 Copy 2" width="49" height="6.653" rx="3.311" fill="rgba(216,216,216,0.02)"/>
      </g>
      <g id="Path_34" data-name="Path 34" transform="translate(25.069 46.448)">
        <path id="Path_34-2" data-name="Path 34" d="M29.62,19.318a3.233,3.233,0,0,0,5.361.06L44.864,5.257A3.365,3.365,0,0,0,44.1.618a3.229,3.229,0,0,0-4.556.778l-7.16,10.23L25.59,1.456a3.232,3.232,0,0,0-5.265-.19L12.25,11.679,6.037,1.563A3.233,3.233,0,0,0,1.535.507,3.362,3.362,0,0,0,.5,5.091L9.171,19.211a3.234,3.234,0,0,0,5.333.3L22.693,8.948Z" transform="translate(0 0)" fill="#ffb830"/>
        <path id="Path_34-3" data-name="Path 34" d="M29.62,19.318a3.233,3.233,0,0,0,5.361.06L44.864,5.257A3.365,3.365,0,0,0,44.1.618a3.229,3.229,0,0,0-4.556.778l-7.16,10.23L25.59,1.456a3.232,3.232,0,0,0-5.265-.19L12.25,11.679,6.037,1.563A3.233,3.233,0,0,0,1.535.507,3.362,3.362,0,0,0,.5,5.091L9.171,19.211a3.234,3.234,0,0,0,5.333.3L22.693,8.948Z" transform="translate(0 0)" fill="rgba(216,216,216,0.02)"/>
      </g>
      <path id="Path_35" data-name="Path 35" d="M22.724,35.282l-1.4-8.8a41.057,41.057,0,0,1,1.407,8.8Zm-6-20.106L0,0A39.905,39.905,0,0,1,9.864,6.469a33.234,33.234,0,0,1,6.861,8.706Z" transform="translate(62.031 14.663)" fill="none" stroke="#fff" stroke-linecap="round" stroke-linejoin="round" stroke-miterlimit="10" stroke-width="6.622"/>
    </g>
  </g>
</svg>
