<svg xmlns="http://www.w3.org/2000/svg" xmlns:xlink="http://www.w3.org/1999/xlink" width="2652.3" height="2174.964" viewBox="0 0 2652.3 2174.964">
  <link xmlns="http://www.w3.org/1999/xhtml" rel="stylesheet" href="../css/style.css" type="text/css"/>
  <style>
/*! landing background animations */
/* !total paths length */
/*#circle_with_blue_border 6057.4833984375;
 
outer_thik_blush_border 5512.63720703125

dark_blue_border 5695.68408203125

thik_light_bluish_border 5531.0791015625

*/

  #circle_with_blue_border {
  stroke-width: 10 !important;
  stroke-dashoffset: 0;
  animation: borderMove 25s linear alternate infinite;
}
#outer_thik_blush_border {
  stroke-dashoffset: 0;
  animation: borderMove 15s both alternate infinite;
}
#dark_blue_border {
  stroke-dashoffset: 0;
  animation: borderMove 30s cubic-bezier(0.4, 0, 1, 1) alternate infinite;
}
#thik_light_bluish_border {
  stroke-dashoffset: 0;
  animation: borderMove 23s ease-in-out alternate infinite;
}

#circle_with_grediant_fill {
  stroke-dashoffset: 0;
  animation: borderMove 27s ease-in-out alternate infinite;
}

@keyframes borderMove {
from {
  stroke-dashoffset: 0;
}

to {
  stroke-dashoffset: 6057.4833984375;
}


  </style>

  <defs>
    <linearGradient id="linear-gradient" x2="1" y2="0.886" gradientUnits="objectBoundingBox">
      <stop offset="0" stop-color="#0afdd8" stop-opacity="0.349"/>
      <stop offset="1" stop-color="#b585ac"/>
    </linearGradient>
    <linearGradient id="linear-gradient-2" x1="0.842" y1="1.129" x2="0.348" y2="0.348" gradientUnits="objectBoundingBox">
      <stop offset="0" stop-color="#55c8c4"/>
      <stop offset="1" stop-color="#72b4bd"/>
    </linearGradient>
  </defs>
  <g class="landing-bg.svg" id="landing_page_background" data-name="landing page background" transform="translate(-418.738 649.223)">
    <path class="aa" id="circle_with_grediant_fill" data-name="circle with grediant fill" d="M1088.8,4.69c388.981-10.011,605,224.918,787.211,406.43,136.764,136.239,143.324,291.9,67.063,444.566-72.435,145-46.782,240.338-280.763,324.267-286.481,102.76-484.78,120.543-788.472,44.082C571.17,1147.831,237.09,923.242,58.8,676.867c-143.68-293.894-23.12-431.2,116.352-566.943C364.689-74.539,701.764,14.651,1088.8,4.69" transform="matrix(0.839, -0.545, 0.545, 0.839, 596.22, 449.48)" stroke="#4afde9" stroke-linecap="round" stroke-width="10" stroke-dasharray="100 40" fill="url(#linear-gradient)"/>
    <path id="circle_with_blue_border" data-name="circle with blue border" d="M1190.4,38.94c292.758,24.157,500.94,127.585,708.357,236.9,257.32,135.619,615.7,256.434,591.708,448.291-27.052,216.292-332.847,406.105-710.248,499.469-372.567,92.168-824.445,80.23-1166.566-35.171-302.588-102.066-313.69-311.08-401.776-493.847C118.641,501.139-135,286.662,102.376,127.611,340.64-32.034,810.6,7.6,1190.4,38.94" transform="translate(419.214 -93.857) rotate(-8)" stroke="#41d9c9" stroke-linecap="round"  stroke-dasharray="133 100" fill="url(#linear-gradient-2)"/>
    <path id="dark_blue_border" data-name="dark blue border" d="M1073.189,34.82c264.394,22.5,453.023,128.075,641.005,239.78,233.207,138.58,557.522,260.888,537.238,460.373-22.868,224.892-297.5,424.753-637.443,525.072a1635.664,1635.664,0,0,1-221.132,48.427c-283,42.174-588.012,17.445-831.975-74.615C287.058,1130.529,275.543,913.534,194.735,724.484c-85.53-200.1-315.984-420.616-102.882-587.919C305.751-31.364,730.187,5.636,1073.189,34.82" transform="translate(431.826 -134.552) rotate(-8)" fill="none" stroke="#004682" stroke-linecap="round" stroke-width="10" stroke-dasharray="133 100" opacity="0.24"/>
    <path id="thik_light_bluish_border" data-name="thik light bluish border" d="M1066.04,32.408c262.723,20.388,450.174,117.4,636.983,220.059,231.753,127.355,554.034,239.607,533.909,423.384-22.687,207.183-295.544,391.627-633.32,484.463-333.45,91.647-738.784,84.43-1046.44-22.793-272.105-94.833-283.583-294.7-363.909-468.736-85.02-184.208-314.05-387.042-102.325-541.419C303.452-27.587,725.206,5.959,1066.04,32.408" transform="translate(438.761 -81.566) rotate(-8)" fill="none" stroke="#41d9c9" stroke-linecap="round" stroke-linejoin="round" stroke-width="25" stroke-dasharray="229 103" opacity="0.36"/>
    <path id="outer_thik_blush_border" data-name="outer thik blush border" d="M1063.687,32.16c262.155,20.2,449.21,116.567,635.624,218.547,231.263,126.514,552.856,238,532.795,420.647-22.617,205.914-294.863,389.291-631.9,481.639-125.1,34.278-260.346,54.668-396.428,61.092-226.661,10.7-456.176-17.037-647.744-83.485-271.525-94.182-283-292.815-363.168-465.762C108.013,481.786-120.541,280.256,90.709,126.776,302.747-27.277,723.59,5.958,1063.687,32.16" transform="translate(444.104 -32.981) rotate(-8)" fill="none" stroke="#41d9c9" stroke-linecap="round" stroke-linejoin="round" stroke-width="21" stroke-dasharray="229 107" opacity="0.36"/>
  </g>
</svg>



