<svg xmlns="http://www.w3.org/2000/svg" xmlns:xlink="http://www.w3.org/1999/xlink" width="268.675" height="567.329" viewBox="0 0 268.675 567.329"><defs><filter id="a" x="34.305" y="0" width="234.369" height="567.329" filterUnits="userSpaceOnUse"><feOffset dx="2" dy="5" input="SourceAlpha"/><feGaussianBlur stdDeviation="7.5" result="b"/><feFlood flood-opacity="0.502"/><feComposite operator="in" in2="b"/><feComposite in="SourceGraphic"/></filter><filter id="c" x="35.061" y="26.941" width="201.89" height="534.713" filterUnits="userSpaceOnUse"><feOffset dy="10" input="SourceAlpha"/><feGaussianBlur stdDeviation="3" result="d"/><feFlood flood-opacity="0.129"/><feComposite operator="in" in2="d"/><feComposite in="SourceGraphic"/></filter><filter id="e" x="41.324" y="33.544" width="186.759" height="509.258" filterUnits="userSpaceOnUse"><feOffset dy="3" input="SourceAlpha"/><feGaussianBlur stdDeviation="3" result="f"/><feFlood flood-opacity="0.161"/><feComposite operator="in" in2="f"/><feComposite in="SourceGraphic"/></filter></defs><g transform="translate(0 17.5)"><ellipse cx="4.477" cy="4.797" rx="4.477" ry="4.797" transform="translate(179.793 498.833)" fill="#70cddd"/><path d="M116.191,33.783l5.823,2.644-5.038,4.053-5.043,4.065-.782-6.7-.782-6.7Z" transform="translate(12.034 4.402)" fill="#70cddd"/><g transform="matrix(1, 0, 0, 1, 0, -17.5)" filter="url(#a)"><path d="M214.908,88.411,79.484,4.634C72.878.548,66.892.167,62.57,2.86L49.233,11.2C53.555,8.5,59.541,8.885,66.148,12.97l135.424,83.78c13.127,8.119,23.736,27.808,23.694,43.97l-.923,366.415c-.021,8.029-2.667,13.679-6.934,16.335l13.337-8.336c4.267-2.657,6.913-8.307,6.934-16.337l.922-366.414c.042-16.162-10.566-35.851-23.694-43.972" transform="translate(5.57 16.36)" fill="#609dc1"/></g><path d="M202.3,95.323,66.87,11.547C60.265,7.461,54.28,7.08,49.958,9.773l-4.923,3.132c4.322-2.692,10.307-2.313,16.914,1.775L197.372,98.456c13.128,8.12,23.738,27.81,23.7,43.971l-.922,366.415c-.022,8.029-2.667,13.679-6.934,16.337l4.923-3.132c4.266-2.657,6.913-8.307,6.934-16.337l.923-366.414c.041-16.162-10.567-35.852-23.7-43.973" transform="translate(5.129 0.137)" fill="#aadee9"/><g transform="matrix(1, 0, 0, 1, 0, -17.5)" filter="url(#c)"><path d="M199.711,96.38c13.128,8.12,23.737,27.81,23.694,43.971l-.922,366.416c-.043,16.164-10.721,22.683-23.848,14.562L63.21,437.551c-13.128-8.12-23.736-27.81-23.694-43.972L40.44,27.166C40.484,11,51.161,4.481,64.288,12.6Z" transform="translate(4.55 17.83)" fill="#73accc"/></g><g transform="matrix(1, 0, 0, 1, 0, -17.5)" filter="url(#e)"><path d="M192.415,100.084c11.925,7.377,21.562,25.262,21.524,39.945L213.1,494.6c-.04,14.682-9.739,20.605-21.664,13.228L66.7,430.668c-11.925-7.379-21.563-25.262-21.524-39.946L46.017,36.15c.039-14.684,9.74-20.608,21.665-13.23Z" transform="translate(5.14 19.8)" fill="#9acae5"/></g><path d="M207.081,147.715V462.232L50.841,365.579V51.061Z" transform="translate(5.742 8.082)" fill="#dfeef7"/><path d="M218.031,173.648V210.9l-4.267,2.644V176.294l2.762-1.71Z" transform="translate(22.964 30.73)" fill="#73accc"/><path d="M216.527,174.438v35.781l-2.763,1.71V176.146Z" transform="translate(22.964 30.876)" fill="#4d8eb4"/><path d="M218.266,219.852V366.607l-6.721,4.167V224.019l4.35-2.693Z" transform="translate(22.729 39.266)" fill="#73accc"/><path d="M215.895,221.1V365.539l-4.35,2.693V223.789Z" transform="translate(22.729 39.496)" fill="#4d8eb4"/><path d="M187.521,74a1.9,1.9,0,0,1-.757.8,4.369,4.369,0,0,1-4.2,0,1.9,1.9,0,0,1-.766-.812,1.409,1.409,0,0,1,.746-1.8,4.349,4.349,0,0,1,4.212,0A1.427,1.427,0,0,1,187.521,74" transform="translate(19.573 11.886)" fill="#73accc"/><path d="M187.51,73.849a1.9,1.9,0,0,1-.757.8,4.37,4.37,0,0,1-4.2,0,1.9,1.9,0,0,1-.766-.812,1.9,1.9,0,0,1,.746-.8,4.349,4.349,0,0,1,4.212,0,1.948,1.948,0,0,1,.768.813" transform="translate(19.583 12.042)" fill="#4d8eb4"/><path d="M93.677,19.278a1.908,1.908,0,0,1-.759.8,4.375,4.375,0,0,1-4.2,0,1.9,1.9,0,0,1-.766-.813,1.407,1.407,0,0,1,.745-1.8,4.343,4.343,0,0,1,4.212,0,1.424,1.424,0,0,1,.768,1.81" transform="translate(9.653 1.776)" fill="#73accc"/><path d="M93.666,19.122a1.908,1.908,0,0,1-.758.8,4.375,4.375,0,0,1-4.2,0,1.9,1.9,0,0,1-.766-.813,1.879,1.879,0,0,1,.745-.8,4.343,4.343,0,0,1,4.212,0,1.936,1.936,0,0,1,.768.81" transform="translate(9.664 1.931)" fill="#4d8eb4"/><path d="M111.789,28.822a3.584,3.584,0,0,1-1.435,1.515,8.285,8.285,0,0,1-7.962,0,3.617,3.617,0,0,1-1.455-1.538c-.535-1.18-.061-2.492,1.414-3.411a8.24,8.24,0,0,1,7.984,0c1.5.931,1.991,2.252,1.454,3.433" transform="translate(11.015 3.149)" fill="#73accc"/><path d="M111.769,28.527a3.584,3.584,0,0,1-1.435,1.515,8.285,8.285,0,0,1-7.962,0,3.617,3.617,0,0,1-1.455-1.538,3.58,3.58,0,0,1,1.414-1.516,8.253,8.253,0,0,1,7.984,0,3.678,3.678,0,0,1,1.454,1.539" transform="translate(11.035 3.445)" fill="#4d8eb4"/><path d="M137.552,81.226a6.365,6.365,0,0,1,2.658,4.933c-.006,1.815-1.2,2.551-2.676,1.64L108.7,69.963a6.4,6.4,0,0,1-2.663-4.943c.006-1.816,1.205-2.542,2.681-1.63Z" transform="translate(11.577 10.288)" fill="#609dc1"/><path d="M149.966,87.454a6.369,6.369,0,0,1,2.658,4.932c0,1.817-1.2,2.553-2.676,1.64l-6.091-3.769a6.389,6.389,0,0,1-2.664-4.942c0-1.816,1.206-2.542,2.68-1.63Z" transform="translate(15.293 14.037)" fill="#609dc1"/><path d="M95.35,52.92a11.94,11.94,0,0,1,4.986,9.247c-.009,3.4-2.255,4.773-5.018,3.064a11.96,11.96,0,0,1-4.981-9.251c.009-3.4,2.256-4.767,5.013-3.06" transform="translate(9.917 8.29)" fill="#609dc1"/><path d="M95.165,54.842a7.429,7.429,0,0,1,3.1,5.747c-.007,2.115-1.4,2.968-3.119,1.9a7.428,7.428,0,0,1-3.1-5.748c.006-2.114,1.4-2.963,3.116-1.9" transform="translate(10.098 8.697)" fill="#9acae5"/><path d="M122.033,368.129c4.416,2.731,7.984,9.355,7.969,14.789l-.022,8.8c-.015,5.438-3.607,7.63-8.023,4.9l-16.845-10.422c-4.411-2.73-7.979-9.351-7.964-14.787l.023-8.8c.015-5.436,3.606-7.627,8.016-4.9Z" transform="translate(10.637 64.518)" fill="#73accc"/><path d="M119.7,369.482c3.389,2.1,6.128,7.18,6.117,11.352l-.018,6.752c-.012,4.173-2.769,5.856-6.157,3.759l-12.93-8c-3.386-2.1-6.123-7.178-6.112-11.351l.019-6.751c.01-4.173,2.767-5.856,6.151-3.763Z" transform="translate(11.002 65.266)" fill="#9acae5"/><path d="M75.636,121,23.462,88.721c-2.383-1.475-4.541-1.61-6.1-.641L2.084,97.6c1.557-.97,3.713-.834,6.1.64l52.175,32.277c4.738,2.932,8.563,10.037,8.547,15.871l-.17,64.239c-.008,2.9-.961,4.936-2.5,5.894L81.511,207c1.54-.959,2.494-3,2.5-5.893l.17-64.24c.015-5.837-3.807-12.941-8.546-15.872" transform="translate(0.589 14.807)" fill="#609dc1"/><path d="M60.613,129.029,8.437,96.751c-4.739-2.932-8.588-.571-8.6,5.261l-.168,64.241c-.018,5.825,3.8,12.93,8.546,15.86l15.96,9.874,19.386,11.993h0l16.83,10.41c4.739,2.932,8.587.572,8.6-5.253l.17-64.239C69.174,139.064,65.351,131.96,60.613,129.029Z" transform="translate(0.333 16.291)" fill="#73accc"/><g transform="translate(103.936 197.049)"><path d="M169.637,201l-52.176-32.276c-2.383-1.475-4.541-1.61-6.1-.641L96.083,177.6c1.557-.97,3.713-.834,6.1.64l52.175,32.277c4.738,2.932,8.562,10.037,8.547,15.871l-.17,64.239c-.008,2.9-.961,4.936-2.5,5.894L175.51,287c1.54-.958,2.494-3,2.5-5.893l.17-64.239c.017-5.837-3.806-12.941-8.545-15.872" transform="translate(-93.412 -167.461)" fill="#609dc1"/><path d="M154.613,209.029l-52.176-32.277c-4.739-2.932-8.588-.571-8.6,5.261l-.168,64.241c-.018,5.825,3.8,12.93,8.546,15.86l15.96,9.874,19.386,11.993h0l16.83,10.41c4.739,2.932,8.587.572,8.6-5.253l.17-64.24C163.174,219.064,159.351,211.96,154.613,209.029Z" transform="translate(-93.667 -165.978)" fill="#73accc"/><g transform="translate(12.064 35.712)"><path d="M111.9,211.627l23.535,15.587a36.256,36.256,0,0,0-5.689-13.949l2.315-3.246a1.033,1.033,0,0,0-.1-1.056c-.229-.339-.553-.421-.725-.181l-2.354,3.289a22.624,22.624,0,0,0-5.245-5.033,10.4,10.4,0,0,0-5.075-1.9l-2.494-6.742c-.175-.469-.5-.823-.727-.783s-.27.448-.1.921l2.448,6.638C114.778,205.4,112.631,208.124,111.9,211.627Z" transform="translate(-103.804 -197.604)" fill="#0d2d4d"/><path d="M138.079,228.969c-1.574-1.043-3.056-.363-3.052,1.691l.035,14.87a7.947,7.947,0,0,0,3.069,5.745c1.575,1.041,3.056.366,3.052-1.691l-.034-14.867A7.953,7.953,0,0,0,138.079,228.969Z" transform="translate(-101.359 -191.899)" fill="#0d2d4d"/><path d="M107.63,210.15c-1.575-1.043-3.058-.363-3.052,1.692l.034,14.869a7.946,7.946,0,0,0,3.069,5.744c1.575,1.043,3.057.365,3.053-1.689L110.7,215.9A7.94,7.94,0,0,0,107.63,210.15Z" transform="translate(-104.578 -195.376)" fill="#0d2d4d"/><path d="M112.021,242.521l3.062,2.026.024,10.489a7.951,7.951,0,0,0,3.068,5.747c1.577,1.045,3.058.362,3.054-1.692L121.2,248.6l5.1,3.379.024,10.489a7.951,7.951,0,0,0,3.068,5.747c1.575,1.043,3.057.361,3.053-1.693l-.024-10.49,3.062,2.027-.076-31.93-23.466-15.54Z" transform="translate(-103.799 -195.205)" fill="#0d2d4d"/><path d="M128.417,214.65c0,.81-.5,1.131-1.122.722a2.941,2.941,0,0,1-1.129-2.211c0-.812.5-1.135,1.123-.723A2.942,2.942,0,0,1,128.417,214.65Z" transform="translate(-102.296 -194.897)" fill="#73accc"/><path d="M118.932,208.79c0,.809-.5,1.13-1.121.72a2.941,2.941,0,0,1-1.129-2.211c0-.813.5-1.136,1.123-.723A2.933,2.933,0,0,1,118.932,208.79Z" transform="translate(-103.299 -195.98)" fill="#73accc"/></g></g><g transform="translate(7.74 242.069)"><path d="M82.637,239,30.461,206.722c-2.383-1.475-4.541-1.61-6.1-.641L9.083,215.6c1.557-.97,3.713-.834,6.1.64l52.175,32.277c4.738,2.932,8.563,10.037,8.547,15.871l-.17,64.24c-.008,2.9-.961,4.936-2.5,5.894L88.51,325c1.54-.958,2.494-3,2.5-5.893l.17-64.239c.017-5.837-3.806-12.941-8.545-15.872" transform="translate(-6.412 -205.461)" fill="#609dc1"/><path d="M67.613,247.029,15.437,214.752c-4.739-2.932-8.588-.571-8.6,5.261l-.168,64.241c-.018,5.825,3.8,12.93,8.546,15.86l15.96,9.874,19.386,11.993h0l16.83,10.41c4.739,2.932,8.587.572,8.6-5.253l.17-64.239C76.174,257.064,72.351,249.96,67.613,247.029Z" transform="translate(-6.667 -203.978)" fill="#73accc"/><path d="M33.751,265.985l-16.175-9.047.056-15.906L33.817,247.8Z" transform="translate(-5.514 -198.89)" fill="#0d2d4d"/><path d="M55.473,277.877,34.132,265.943l.063-18.237,21.352,9.008Z" transform="translate(-3.764 -197.657)" fill="#0d2d4d"/><path d="M33.686,283.731,17.518,272.351l.055-15.908L33.75,265.49Z" transform="translate(-5.52 -196.043)" fill="#0d2d4d"/><path d="M55.4,298.365,34.064,283.73l.066-18.646,21.341,11.934Z" transform="translate(-3.771 -194.446)" fill="#0d2d4d"/></g><g transform="translate(16.669 143.354)"><path d="M30.992,131.018s-.138-9.913,8.993-8.79C39.985,122.229,39.523,132.671,30.992,131.018Z" transform="translate(-13.025 -122.14)" fill="#0d2d4d"/><path d="M47.142,141.888s-6.439,1.842-5.2,12.37a17.544,17.544,0,0,0,4.048,8.363s-2.908,9.173-8.847,10.613c0,0-.65,1.444-6.07-4.121a7.012,7.012,0,0,0-5.091-1.134c-3.009.485-4.969.515-7.953-7.254s-7.623-31.544,5.537-33.131c0,0,3.246-.579,7.172,3.936,0,0,1.726,2.24,3.926,1.513S43.544,132.257,47.142,141.888Z" transform="translate(-14.743 -121.137)" fill="#0d2d4d"/></g></g></svg>